<svg width="30" height="30" viewBox="0 0 30 30" fill="none" xmlns="http://www.w3.org/2000/svg">
<path d="M15.1368 0.857178C12.5332 0.857178 10.1368 1.4917 7.94631 2.76194C5.78646 4.00117 3.99507 5.79256 2.75584 7.95242C1.4856 10.1429 0.851074 12.5393 0.851074 15.1429C0.851074 17.7465 1.4856 20.1429 2.75584 22.3334C3.99507 24.4932 5.78646 26.2846 7.94631 27.5238C10.1368 28.7941 12.5332 29.4286 15.1368 29.4286C17.7404 29.4286 20.1368 28.7941 22.3273 27.5238C24.4871 26.2846 26.2785 24.4932 27.5177 22.3334C28.788 20.1429 29.4225 17.7465 29.4225 15.1429C29.4225 12.5393 28.788 10.1429 27.5177 7.95242C26.2785 5.79256 24.4871 4.00117 22.3273 2.76194C20.1368 1.4917 17.7404 0.857178 15.1368 0.857178ZM18.8511 15.1429H16.4701V23.7143H13.232V15.1429H11.1368V12.1905H13.232V10.381C13.232 9.04765 13.4546 8.09527 13.8987 7.52384C14.407 6.82503 15.3273 6.47622 16.6606 6.47622H19.0415V9.42861H17.613C17.1046 9.42861 16.788 9.50837 16.6606 9.6667C16.5332 9.82504 16.4701 10.1274 16.4701 10.5715V12H19.0415L18.8511 15.1429Z" fill="#8A8A8A"/>
</svg>
