<svg width="30" height="30" viewBox="0 0 30 30" fill="none" xmlns="http://www.w3.org/2000/svg">
<path d="M19.5176 15.7143C19.396 16.3349 19.1706 16.9306 18.8509 17.4762C18.5345 18.0146 18.1135 18.4841 17.6128 18.8572C16.9505 19.3524 16.1534 19.6347 15.3271 19.6667C14.5109 19.7007 13.7019 19.5026 12.9938 19.0953C12.2719 18.6913 11.6904 18.0766 11.3271 17.3334C10.7557 16.1905 10.6283 14.9846 10.9462 13.7143H9.61283L9.70807 20.2857C9.70807 20.4131 9.75568 20.5393 9.85092 20.6667C9.94616 20.7941 10.0569 20.8572 10.1843 20.8572H20.089C20.2164 20.8572 20.3426 20.7941 20.47 20.6667C20.5974 20.5393 20.6604 20.4131 20.6604 20.2857V13.7143H19.3271C19.5176 14.3488 19.5807 15.0155 19.5176 15.7143ZM15.1366 18.0953C15.8985 18.0953 16.5652 17.8096 17.1366 17.2381C17.7081 16.6667 17.9938 15.9846 17.9938 15.1905C18.0005 14.4145 17.711 13.6651 17.1843 13.0953C16.645 12.4917 15.9783 12.1905 15.1843 12.1905C14.3902 12.1905 13.7081 12.4762 13.1366 13.0477C12.5652 13.6191 12.2795 14.3012 12.2795 15.0953C12.2795 15.8893 12.5497 16.5869 13.089 17.1905C13.6283 17.7941 14.2795 18.0953 15.0414 18.0953H15.1366ZM20.089 9.04765H18.7557C18.6283 9.04765 18.5021 9.11075 18.3747 9.23813C18.2474 9.36551 18.1843 9.4917 18.1843 9.61908V11.2381C18.3116 11.4917 18.5021 11.6191 18.7557 11.6191H20.089C20.2795 11.6191 20.4224 11.556 20.5176 11.4286C20.6058 11.3208 20.656 11.1869 20.6604 11.0477V9.61908C20.6604 9.4917 20.5974 9.36551 20.47 9.23813C20.3426 9.11075 20.2164 9.04765 20.089 9.04765ZM14.7557 0.857178C12.1521 0.857178 9.75568 1.4917 7.56521 2.76194C5.40536 4.00117 3.61396 5.79256 2.37473 7.95242C1.10449 10.1429 0.469971 12.5393 0.469971 15.1429C0.469971 17.7465 1.10449 20.1429 2.37473 22.3334C3.61396 24.4932 5.40536 26.2846 7.56521 27.5238C9.75568 28.7941 12.1521 29.4286 14.7557 29.4286C17.3593 29.4286 19.7557 28.7941 21.9462 27.5238C24.106 26.2846 25.8974 24.4932 27.1366 22.3334C28.4069 20.1429 29.0414 17.7465 29.0414 15.1429C29.0414 12.5393 28.4069 10.1429 27.1366 7.95242C25.8974 5.79256 24.106 4.00117 21.9462 2.76194C19.7557 1.4917 17.3593 0.857178 14.7557 0.857178ZM22.1843 20.9524L22.089 21.0477V21.1429C22.0917 21.2934 22.0635 21.4429 22.0062 21.5822C21.9488 21.7214 21.8636 21.8474 21.7557 21.9524C21.5353 22.1737 21.2531 22.3231 20.9462 22.381H9.42235C9.26754 22.382 9.11447 22.3482 8.97439 22.2823C8.83431 22.2164 8.71076 22.1199 8.61283 22C8.39631 21.7575 8.24837 21.4616 8.18426 21.1429L8.08902 20.9524L8.18426 9.23813C8.18426 8.92027 8.29497 8.63456 8.51759 8.38099C8.74021 8.12742 9.00926 7.96789 9.32711 7.9048H20.8509C21.1578 7.9627 21.44 8.1121 21.6604 8.33337C21.8817 8.55378 22.0311 8.83599 22.089 9.14289L22.1843 20.9524Z" fill="#8A8A8A"/>
</svg>
