<svg width="29" height="30" viewBox="0 0 29 30" fill="none" xmlns="http://www.w3.org/2000/svg">
<path d="M14.3272 0.857178C11.7236 0.857178 9.32722 1.4917 7.13674 2.76194C4.97689 4.00117 3.1855 5.79256 1.94627 7.95242C0.676028 10.1429 0.0415039 12.5393 0.0415039 15.1429C0.0415039 17.7465 0.676028 20.1429 1.94627 22.3334C3.1855 24.4932 4.97689 26.2846 7.13674 27.5238C9.32722 28.7941 11.7236 29.4286 14.3272 29.4286C16.9308 29.4286 19.3272 28.7941 21.5177 27.5238C23.6775 26.2846 25.4689 24.4932 26.7082 22.3334C27.9784 20.1429 28.6129 17.7465 28.6129 15.1429C28.6129 12.5393 27.9784 10.1429 26.7082 7.95242C25.4689 5.79256 23.6775 4.00117 21.5177 2.76194C19.3272 1.4917 16.9308 0.857178 14.3272 0.857178ZM21.4701 11.9048V12.381C21.4701 14.0322 21.0736 15.6191 20.2796 17.1429C19.4965 18.6551 18.3308 19.9358 16.8986 20.8572C15.3117 21.8727 13.5332 22.381 11.5653 22.381C9.64827 22.3953 7.76628 21.8671 6.13674 20.8572H6.99389C8.64508 20.8572 10.1046 20.3488 11.3748 19.3334C10.6129 19.3334 9.93079 19.0953 9.32722 18.6191C8.72365 18.1429 8.29508 17.5238 8.0415 16.7619L8.70817 16.9524C9.15222 16.9524 9.47008 16.8893 9.66055 16.7619C8.85013 16.6437 8.11661 16.2173 7.61293 15.5715C7.08752 14.9443 6.80078 14.1515 6.80341 13.3334C7.31174 13.6512 7.85103 13.8096 8.42246 13.8096C7.34269 13.175 6.80341 12.1905 6.80341 10.8572C6.80341 10.2227 6.96174 9.61908 7.2796 9.04765C8.23198 10.1905 9.32722 11.0798 10.5653 11.7143C11.8221 12.3541 13.2035 12.7117 14.6129 12.7619C14.4856 12.5715 14.4225 12.2857 14.4225 11.9048C14.4225 10.9524 14.7713 10.1274 15.4701 9.42861C16.1689 8.7298 16.9939 8.38099 17.9463 8.38099C18.8986 8.38099 19.7879 8.7298 20.6129 9.42861C21.1844 9.30122 21.9463 9.01551 22.8986 8.57146C22.6451 9.46075 22.1367 10.0953 21.3748 10.4762H21.4701C22.3594 10.2857 22.9939 10.0953 23.3748 9.9048C22.7403 10.7298 22.1046 11.3965 21.4701 11.9048Z" fill="#8A8A8A"/>
</svg>
