<svg width="30" height="30" viewBox="0 0 30 30" fill="none" xmlns="http://www.w3.org/2000/svg">
<path d="M14.089 21.8096C14.036 21.924 13.9539 22.0226 13.8509 22.0953C13.7673 22.155 13.6678 22.1881 13.5652 22.1905C13.4699 22.1905 13.4068 22.1584 13.3747 22.0953C13.338 22.0047 13.3217 21.9071 13.3271 21.8096V18.2857H12.4699V22.1905C12.4606 22.406 12.51 22.62 12.6128 22.8096C12.708 22.9679 12.8509 23.0477 13.0414 23.0477C13.2318 23.0477 13.4068 22.9846 13.5652 22.8572C13.7235 22.7298 13.8985 22.5715 14.089 22.381V22.9524H14.9461V18.2857H14.089V21.8096ZM8.94611 17.5238V16.5715H12.089V17.5238H11.0414V22.9524H9.99373V17.5238H8.94611ZM14.8509 11.9048C14.7235 11.9048 14.6128 11.8572 14.5175 11.7619C14.4723 11.7191 14.4362 11.6674 14.4116 11.61C14.3871 11.5527 14.3745 11.491 14.3747 11.4286V8.57146C14.3747 8.50837 14.4068 8.44408 14.4699 8.38099C14.533 8.31789 14.6449 8.28575 14.8033 8.28575C14.9616 8.28575 15.089 8.31789 15.1842 8.38099C15.2309 8.41203 15.2686 8.45472 15.2936 8.50484C15.3187 8.55496 15.3302 8.61076 15.3271 8.6667V11.4286C15.3271 11.556 15.2794 11.6667 15.1842 11.7619C15.1413 11.8072 15.0896 11.8433 15.0323 11.8678C14.975 11.8924 14.9132 11.905 14.8509 11.9048ZM17.2318 21.8096C17.2318 21.0477 17.264 20.2536 17.3271 19.4286C17.3271 19.3012 17.2794 19.1905 17.1842 19.0953C17.089 19 16.9937 18.9524 16.8985 18.9524H16.7556L16.4699 19.1429V22L16.7556 22.1905L16.9461 22.2857C17.0735 22.2857 17.1521 22.2536 17.1842 22.1905C17.2164 22.1274 17.2318 22 17.2318 21.8096ZM17.3271 18.1905C17.5806 18.1905 17.7878 18.2857 17.9461 18.4762C18.1044 18.6667 18.1842 18.9524 18.1842 19.3334V22C18.1842 22.3179 18.1211 22.5715 17.9937 22.7619C17.9413 22.8505 17.863 22.9208 17.7693 22.9634C17.6756 23.006 17.5711 23.0188 17.4699 23C17.2745 22.9751 17.0827 22.9271 16.8985 22.8572C16.7554 22.8073 16.6364 22.7052 16.5652 22.5715V22.9524H15.6128V16.5715H16.5652V18.6667C16.6925 18.5393 16.8187 18.4286 16.9461 18.3334C17.0539 18.2451 17.1878 18.1949 17.3271 18.1905ZM21.9937 24.2857C22.3116 24.0322 22.5021 23.206 22.5652 21.8096C22.6283 21.1108 22.6925 20.4441 22.7556 19.8096C22.7556 19.2381 22.6925 18.6036 22.5652 17.9048C22.4378 16.5084 22.2318 15.6512 21.9461 15.3334C21.6604 15.0155 20.4378 14.7941 18.2794 14.6667L15.1366 14.5715L11.8985 14.6667C9.74016 14.7941 8.51754 15.0155 8.23183 15.3334C7.94611 15.6512 7.74016 16.5084 7.61278 17.9048C7.54939 18.5377 7.5176 19.1734 7.51754 19.8096C7.51754 20.4441 7.54969 21.1108 7.61278 21.8096C7.74016 23.206 7.94611 24.0477 8.23183 24.3334C8.51754 24.6191 9.74016 24.8572 11.8985 25.0477L15.1366 25.1429L18.2794 25.0477C20.4378 24.8572 21.6759 24.6346 21.9937 24.381V24.2857ZM10.6604 5.61908H9.51754L10.8509 9.9048V12.5715H11.9937V9.71432L13.3271 5.61908H12.1842L11.5175 8.38099H11.4223L10.6604 5.61908ZM13.4223 8.6667V11.3334C13.4223 11.7774 13.5497 12.1274 13.8033 12.381C14.0568 12.6346 14.4068 12.7619 14.8509 12.7619C15.2949 12.7619 15.6449 12.6346 15.8985 12.381C16.1521 12.1274 16.2794 11.7774 16.2794 11.3334V8.6667C16.2794 8.28575 16.1521 7.96789 15.8985 7.71432C15.6449 7.46075 15.2949 7.33337 14.8509 7.33337C14.4068 7.33337 14.0568 7.46075 13.8033 7.71432C13.5497 7.96789 13.4223 8.28575 13.4223 8.6667ZM17.1366 7.52384V11.8096C17.1273 12.025 17.1766 12.239 17.2794 12.4286C17.3747 12.5869 17.533 12.6667 17.7556 12.6667C17.9783 12.6667 18.1842 12.6191 18.3747 12.5238C18.5652 12.4286 18.7556 12.2857 18.9461 12.0953V12.6667H19.9937V7.52384H18.9461V11.3334C18.8853 11.4577 18.7848 11.5583 18.6604 11.6191C18.558 11.6758 18.444 11.7084 18.3271 11.7143C18.2318 11.7143 18.1687 11.6988 18.1366 11.6667C18.1044 11.6346 18.089 11.556 18.089 11.4286V7.42861H17.1366V7.52384ZM14.9461 0.857178C17.5497 0.857178 19.9461 1.4917 22.1366 2.76194C24.2964 4.00117 26.0878 5.79256 27.3271 7.95242C28.5973 10.1429 29.2318 12.5393 29.2318 15.1429C29.2318 17.7465 28.5973 20.1429 27.3271 22.3334C26.0878 24.4932 24.2964 26.2846 22.1366 27.5238C19.9461 28.7941 17.5497 29.4286 14.9461 29.4286C12.3425 29.4286 9.94611 28.7941 7.75564 27.5238C5.59579 26.2846 3.80439 24.4932 2.56516 22.3334C1.29492 20.1429 0.6604 17.7465 0.6604 15.1429C0.6604 12.5393 1.29492 10.1429 2.56516 7.95242C3.80439 5.79256 5.59579 4.00117 7.75564 2.76194C9.94611 1.4917 12.3425 0.857178 14.9461 0.857178ZM20.3747 20L20.2794 19.5238C20.2794 19.3334 20.2473 19.1905 20.1842 19.0953C20.1532 19.0486 20.1105 19.0109 20.0604 18.9858C20.0102 18.9608 19.9544 18.9493 19.8985 18.9524C19.8426 18.9493 19.7868 18.9608 19.7366 18.9858C19.6865 19.0109 19.6438 19.0486 19.6128 19.0953C19.5497 19.1905 19.5175 19.3334 19.5175 19.5238V20H20.3747ZM19.9937 18.1905C20.3747 18.1905 20.6759 18.3012 20.8985 18.5238C21.1211 18.7465 21.2318 19.0798 21.2318 19.5238V20.6667H19.5175V21.6191C19.5175 21.8096 19.5497 21.9524 19.6128 22.0477C19.6759 22.1429 19.7878 22.1905 19.9461 22.1905C20.1044 22.1905 20.2164 22.1429 20.2794 22.0477C20.3425 21.9524 20.3747 21.7774 20.3747 21.5238V21.3334H21.2318V21.6191C21.2318 22.0631 21.1211 22.4131 20.8985 22.6667C20.6759 22.9203 20.3592 23.0477 19.9461 23.0477C19.533 23.0477 19.2164 22.9203 18.9937 22.6667C18.7711 22.4131 18.6604 22.0631 18.6604 21.6191V19.5238C18.6604 19.1429 18.7878 18.825 19.0414 18.5715C19.2949 18.3179 19.6128 18.1905 19.9937 18.1905Z" fill="#8A8A8A"/>
</svg>
