<svg viewBox="0 0 85 86" fill="none" xmlns="http://www.w3.org/2000/svg">
<path d="M41.046 74.0518C38.4342 80.1323 31.3211 82.9156 25.1584 80.2685C18.9958 77.6214 16.1172 70.5463 18.729 64.4658C21.3408 58.3853 39.5374 46.793 39.5374 46.793C39.5374 46.793 43.6578 67.9713 41.046 74.0518Z" fill="#FFC310"/>
<path d="M68.7972 60.2939C72.4883 65.7866 70.9676 73.272 65.4007 77.013C59.8338 80.754 52.3286 79.3339 48.6376 73.8412C44.9465 68.3485 45.0798 46.7735 45.0798 46.7735C45.0798 46.7735 65.1061 54.8012 68.7972 60.2939Z" fill="#FFC310"/>
<path d="M35.8885 10.0338C32.2712 4.49227 24.7857 2.97199 19.1693 6.6382C13.5528 10.3044 11.9322 17.7688 15.5495 23.3104C19.1669 28.8519 39.084 37.1467 39.084 37.1467C39.084 37.1467 39.5058 15.5754 35.8885 10.0338Z" fill="#FFC310"/>
<path d="M66.6692 21.5947C69.6342 15.6784 67.1768 8.44622 61.1805 5.44118C55.1842 2.43615 47.9197 4.79623 44.9547 10.7126C41.9898 16.6289 44.8572 38.0129 44.8572 38.0129C44.8572 38.0129 63.7042 27.5111 66.6692 21.5947Z" fill="#FFC310"/>
<path d="M11.9825 29.9545C5.36481 29.9545 0.000102072 35.3917 0.000102401 42.0988C0.00010273 48.806 5.36481 54.2432 11.9825 54.2432C18.6002 54.2432 36.4331 42.0988 36.4331 42.0988C36.4331 42.0988 18.6002 29.9545 11.9825 29.9545Z" fill="#FFC310"/>
<path d="M73.0175 54.2528C79.6352 54.2528 84.9999 48.8156 84.9999 42.1084C84.9999 35.4013 79.6352 29.9641 73.0175 29.9641C66.3998 29.9641 48.5669 42.1084 48.5669 42.1084C48.5669 42.1084 66.3998 54.2528 73.0175 54.2528Z" fill="#FFC310"/>
</svg>
