<svg viewBox="0 0 237 106" fill="none" xmlns="http://www.w3.org/2000/svg">
<path d="M236.017 96.4318L224.927 93.2165L227.687 104.429L236.017 96.4318ZM0.829657 1.13639C2.37355 12.3506 7.67673 28.5837 18.6238 40.8527C29.6224 53.1793 46.2865 61.456 70.3185 56.6712L69.928 54.7097C46.6383 59.3467 30.6761 51.3562 20.1162 39.5211C9.5048 27.6284 4.31736 11.8054 2.81097 0.863613L0.829657 1.13639ZM70.3185 56.6712C99.7392 50.8134 122.421 54.996 135.474 63.5728C141.994 67.8568 146.065 73.2011 147.469 78.9021C148.867 84.5835 147.652 90.7632 143.321 96.8256L144.948 97.9883C149.566 91.5239 150.969 84.7535 149.411 78.4241C147.858 72.1143 143.399 66.387 136.572 61.9014C122.933 52.9389 99.6594 48.79 69.928 54.7097L70.3185 56.6712ZM143.321 96.8256C138.93 102.971 134.877 104.329 132.029 103.433C129.099 102.512 126.71 99.0067 126.127 93.8205C124.98 83.6021 131.104 67.8247 152.379 58.7413L151.593 56.902C129.63 66.2793 122.879 82.8212 124.14 94.0437C124.762 99.5779 127.398 104.074 131.429 105.341C135.543 106.635 140.388 104.37 144.948 97.9883L143.321 96.8256ZM152.379 58.7413C161.934 54.6616 169.606 55.1561 176.181 58.1021C182.816 61.0752 188.425 66.5848 193.734 72.7306C198.981 78.8059 204.001 85.5978 209.263 90.7422C214.556 95.916 220.338 99.6868 227.294 99.5831L227.264 97.5834C221.111 97.6751 215.823 94.3577 210.661 89.312C205.469 84.2368 200.649 77.6779 195.247 71.4233C189.906 65.2392 184.057 59.4398 176.998 56.277C169.88 53.0871 161.625 52.6189 151.593 56.902L152.379 58.7413Z" fill="white"/>
</svg>
